<?xml version="1.0" encoding="UTF-8"?>
<svg id="Layer_1" data-name="Layer 1" xmlns="http://www.w3.org/2000/svg" viewBox="0 0 31.83 20.9">
  <defs>
    <style>
      .cls-1 {
        fill: #fff;
      }

      .cls-2 {
        font-family: BerlinSansFBDemi-Bold, 'Berlin Sans FB Demi';
        font-size: 2.49px;
      }

      .cls-3 {
        fill: #ed2224;
      }

      .cls-4 {
        fill: #079247;
        letter-spacing: 0em;
      }

      .cls-5 {
        fill: #1592cc;
      }

      .cls-6 {
        fill: #3a53a4;
      }

      .cls-7 {
        fill: #f6eb16;
        letter-spacing: 0em;
      }

      .cls-8 {
        fill: #010101;
      }
    </style>
  </defs>
  <path class="cls-8" d="M31.83,10.9s-.04-.05-.06-.06c-.09-.02-.16-.08-.25-.09-.01,0-.02-.02-.02-.04,.06-.02,.12,.04,.19,0,.03-.02,.08-.02,.06-.08-.02-.07-.03-.15-.11-.17-.04,0-.08,0-.11-.03-.01-.01-.02-.02-.03-.03-.01,0-.02-.02-.02-.03,.04-.02,.07-.05,.12-.07,.19-.08,.21-.19,.08-.33,0-.01,0-.02-.01-.03-.04-.04-.09-.06-.14-.07-.22-.04-.44-.1-.67-.14-.26-.04-.51-.09-.77-.1-.19-.01-.38-.04-.57-.07-.03,0-.07,0-.09-.03-.02-.02-.05-.02-.07,0-.09,.08-.19-.05-.28,0-.03,.01-.06,0-.09-.03,0-.05-.04-.07-.08-.08-.09,0-.18-.01-.27-.01-.2,0-.4-.02-.59-.04-.15-.01-.3-.05-.46-.01-.03,0-.08,.02-.09-.01-.02-.05-.06-.04-.09-.04-.15,0-.29-.02-.44-.02-.05,0-.1-.03-.14-.07-.02-.02-.03-.05-.06-.06-.04,0-.05-.03-.04-.06,0-.04,.04-.03,.07-.03,.26,0,.51,0,.77,0,.08,.02,.17,.03,.24,0,.05-.01,.13,.06,.16-.04-.05-.07-.13-.06-.2-.06-.09,0-.17,.01-.26,.01-.03,0-.08,.02-.09-.02-.02-.07-.06-.05-.1-.06-.07,0-.15-.02-.21-.05-.1-.04-.21-.03-.31-.05-.02,0-.04,.01-.06,.02-.02,0-.04,0-.06-.02-.04-.02-.09-.02-.09-.08,0-.05,.05-.03,.07-.05,.02-.03,.05-.04,.07-.07,.02-.01,.04-.04,.03-.05-.04-.07,.01-.06,.05-.08,.07-.03,.16,0,.19-.11,0,0,.02-.02,.03-.02,.08,0,.11-.07,.15-.11,.04-.03,.06-.06,.02-.1-.04-.02-.1-.03-.12-.06-.04-.08-.1-.1-.17-.11,0-.04,.03-.04,.04-.06,.05-.06,.13-.06,.19-.12,.06-.06,.13-.09,.2-.13,.1-.06,.22-.07,.3-.15,.02-.02,.07-.02,.06-.07-.01-.06-.07-.04-.11-.06-.02-.06-.01-.15-.11-.13,0,0-.02-.02-.04-.03-.02-.02-.04-.04-.01-.07,.03-.04,.12-.07,.16-.04,.07,.04,.14,.06,.2-.03,0-.01,.03-.02,.04-.03-.04-.04-.1-.05-.11-.12,0-.03,0-.06,.03-.06,.06,0,.1-.06,.16-.05,0,0,0,0,.01,0,0,0,0,0,0-.02-.05-.05-.03-.09,.02-.11,.03-.01,.07-.01,.09-.05-.03-.03-.06-.06-.08-.1-.02-.04-.05-.09,0-.12,.02,0,.02-.03,.03-.05,.02,0,.01-.01,0-.02-.02-.01-.04-.04-.06-.04-.13-.03-.13-.18-.19-.27-.01-.02,0-.04,.01-.06,.08-.08,.16-.18,.27-.24-.03-.03-.04-.09-.09-.11-.06-.03-.08-.07-.07-.13,.01-.05,0-.12,.05-.15,.02-.03,.08-.02,.05-.09h0s-.02-.01-.03-.03c-.08-.06-.04-.15-.06-.23,0-.01,.01-.04,.02-.04,.07-.03,.09-.11,.13-.17,.02-.03,.03-.06,.06-.08,.02-.02,.04-.03,.05-.05,.07-.09,.06-.14-.03-.21-.03-.03-.06-.06-.08-.09-.04-.07-.04-.09,.01-.14,.01-.01,.04-.02,.05-.04,.05-.07,.06-.15,.03-.23-.02-.08-.09-.11-.15-.11-.08,0-.13-.03-.18-.09-.03-.04-.07-.07-.12-.08-.12-.02-.24-.04-.35-.08-.11-.05-.23,.04-.34-.03-.12,.05-.23-.06-.34-.01-.02,0-.04,0-.04-.03,0-.02,0-.04,.03-.05,.05,0,.1-.04,.15-.04,.1,0,.19,.03,.29,0,.08-.02,.15,0,.23-.01,.03,0,.07,.02,.07-.04-.01-.01-.04,0-.05-.02-.08-.03-.16-.04-.24-.04-.06,0-.11-.04-.17,0-.06,.05-.11-.03-.17-.03-.07,0-.14-.02-.22-.02-.06,0-.05-.04-.04-.08,.01-.02,.01-.04,0-.05-.12-.01-.2-.08-.22-.22,0-.03-.02-.05-.04-.06-.05-.04-.1-.11-.18-.08-.01,0-.02,0-.03-.02,0-.02,0-.03,0-.05,.02-.03,.05-.02,.08-.04,.05-.02,.03-.06,.02-.1,0-.01-.03-.02-.04-.03-.04-.05-.08-.1-.07-.16,.02-.06,.08-.04,.13-.05,0,0,0,0,0,0,.01-.04-.03-.05-.04-.08-.04-.11-.13-.16-.23-.17-.08,0-.15,0-.23-.03-.03,0-.08,.01-.1-.03-.01-.05,.04-.05,.07-.07,0,0,.02-.01,0-.03-.08-.02-.15-.06-.24-.07-.12,0-.23-.04-.27-.18,0,0,0-.02-.02-.02-.04-.01-.07-.03-.07-.07,0-.05,.05-.06,.07-.09,.02-.03,.05-.04,.08-.05,.05-.03,.11-.09,.09-.16-.03-.09,0-.14,.06-.19,.02-.02,.06-.05,.06-.09,0,0,0-.02-.01-.02-.1-.08-.22-.14-.18-.31,0-.03-.09-.16-.11-.16-.09-.01-.15-.08-.21-.15-.07,.08-.16,.08-.26,.07-.14,0-.28-.04-.42-.03-.18,.01-.36-.06-.54,.02-.02,0-.05-.01-.07-.02-.03,0-.06-.02-.08-.02-.15,0-.29,0-.44,0-.11,0-.21,.02-.32,.02-.09,0-.18,0-.27,.01-.09,.01-.18,.02-.26,0-.07-.02-.14-.02-.22,0-.11,.02-.23,.02-.35,.02-.13,0-.25,0-.38,0-.1,0-.2,0-.29,.02-.2,.03-.4,.02-.6,.05-.2,.03-.4,.04-.59,.05-.04,.04-.12-.03-.15,.05-.04,.06-.11,.05-.17,.08,.04,.08,.1,.03,.15,.03,.16,0,.31-.03,.46-.04,.13-.01,.27-.01,.4-.03,.16-.02,.32-.04,.47-.04,.25,0,.5-.04,.75-.03,.02,0,.05,0,.07-.01,.09,0,.18,0,.26-.02,.11-.02,.22,.02,.33,0,.04,0,.09-.01,.13,0,.15,.02,.31,0,.46,0,.2,0,.41-.02,.61,0,.12,0,.24,.03,.37,.01,.11-.01,.22,.01,.33,.02,.03,0,.06,.02,.09,.03,.04,.02,.03,.05,0,.08-.02,.02-.04,.02-.07,.02-.08,.02-.15-.03-.23-.02-.13,0-.25,.01-.38,0-.23,0-.46-.01-.69,0-.15,0-.29,.02-.44,.02-.12,0-.23,0-.35,0-.14,0-.28,.02-.41,.04-.16,.03-.32,.03-.47,.02-.09,0-.18-.02-.26,.04-.03,.03-.08,0-.12,0-.04,0-.07,0-.11,0-.09,0-.18,.02-.26,.05-.09,.03-.19,0-.28,.01-.22,.03-.44,.03-.66,.08-.14,.03-.29,0-.44,.03-.06,.01-.11,.02-.17,.02-.16,.01-.32,.02-.48,.03-.26,.02-.53,.03-.79,.05-.26,.02-.51,.02-.77,.08-.1,.02-.19,.01-.28,0-.04,0-.11,0-.12-.06-.01-.04-.03-.04-.06-.05-.02,0-.05,0-.05-.03,0-.07-.04-.11-.08-.15-.02-.03-.02-.07,.01-.1,.01-.01,.04-.02,.02-.05-.03-.01-.05-.03-.04-.07,.05-.19-.08-.34-.12-.5,0-.02-.03-.07-.08-.05-.13,.06-.18,.04-.24-.09-.02-.04-.04-.05-.07-.03-.04,.02-.09,0-.09,.08,0,.01-.02,.02-.04,0-.01,0-.02,0-.03,0-.06,.02-.11,.04-.17,.03-.03,0-.02-.02-.01-.04,0,0,0,0,0-.01,0,0,0-.01,0-.02-.18,0-.37-.02-.55,.01-.12,.02-.24,.01-.35,.03-.02,0-.05,0-.07,0-.15-.04-.31-.03-.47-.01-.03,.01-.06,.01-.08,.04-.1,.11-.19,.04-.28-.02-.08,.02-.16,.04-.24,.05-.14,.02-.28-.01-.42,0-.07,0-.14,.02-.19,.06-.09,.08-.18,.09-.27,.02-.03-.02-.08-.02-.11-.04-.03,0-.03,.04-.05,.06-.06,.06-.09,.06-.17,.01-.04-.02-.09-.06-.12,.03-.01,.04-.05,.05-.09,.05-.07,0-.13,0-.19,.01-.18,.06-.36,0-.54,.07-.03,.01-.03-.03-.01-.05,0-.07-.04-.07-.09-.05-.02,0-.03,.02-.05,.02-.12,0-.24,.01-.36,.02-.03,0-.08-.01-.09,.02-.04,.07-.1,.06-.15,.05-.07,0-.14,.01-.2,.02-.05,0-.1,0-.14,0-.02,.05,.05,.07,.01,.12-.07,0-.14,0-.22,0-.04,0-.09,.02-.1-.06,0-.04-.05-.03-.08,0-.01,.02-.01,.04,0,.06,0,.02-.01,.05-.03,.05-.1-.03-.21,.06-.31-.03-.02-.02-.06-.01-.09,0-.04,.01-.17,0-.22-.03-.01-.02-.02-.04-.05-.03-.11-.01-.21,.05-.31,.05-.03,0-.04,0-.03,.03,0,.02,0,.05-.03,.04-.05-.02-.09,0-.13,0-.03,0-.06,0-.08-.02-.05-.05-.11-.04-.17-.03-.07,.02-.14,.04-.22,.03-.1,0-.19,.01-.28,.03-.14,.02-.27,.05-.41,.07-.02,0-.04,0-.06,0-.13-.03-.25,.02-.37,.04-.16,.02-.32,.11-.49,.07-.03,0-.07,0-.11,.01-.03,.02-.07,.02-.11,.01-.12-.03-.24,.02-.36,.03-.14,.02-.27,0-.41,.05-.11,.04-.24,0-.35,.07,0,0-.02,0-.04,0-.2-.01-.4,.03-.6,.03-.05,0-.08,0-.11-.05-.02-.03-.05-.07-.08-.05-.09,.04-.18-.02-.27,0,0,0-.02,0-.02,.02,0,.03,.06,.04,.05,.09-.22,.04-.45,.02-.67,.05-.05,0-.1,.03-.14,.02-.15-.02-.3,0-.45,.02-.16,.03-.31,.04-.47,.02-.02,0-.04,0-.06,0-.01,0-.04,.02-.04,.02,0,.08-.1,.14-.04,.24,.02,.04,.04,.08,.06,.13,.04,.08,0,.19-.06,.2-.06,.01-.14,.01-.18-.02-.08-.07-.17-.03-.26-.06-.03-.01-.08,.01-.07,.06,.03,.13,.03,.26,.11,.37,.07,.09,.16,.15,.25,.2,.07,.04,.15,.07,.19,.16-.03,.02-.06,.03-.1,.03-.28,.02-.55,.05-.83,.07-.04,0-.08,.01-.12,.02-.04,0-.09,.03-.09,.08,0,.06,0,.14,.04,.19,.07,.1,.16,.18,.29,.18,.18,0,.37,0,.55-.02,.09-.01,.19-.01,.28,0,.05,0,.09,.02,.11,.07,.03,.12,.08,.23,.16,.32,.03,.03,0,.06-.03,.07-.02,0-.04,.01-.06,0-.12-.02-.24,0-.35,.04-.05,.01-.09,.01-.13,0-.04-.02-.08-.02-.12-.02-.16,0-.32,.03-.47,0-.08-.02-.16,.03-.17,.09-.01,.05,.03,.11,.12,.15,.05,.02,.1,.04,.14,.07,.11,.07,.16,.18,.25,.27,.06,.06,.11,.13,.17,.2-.02,0-.03,.02-.04,.02-.23-.02-.46,.03-.7,.02-.05,0-.11,0-.15,.04-.03,.02-.05,.05-.01,.08,.09,.06,.16,.15,.24,.22,.13,.1,.28,.18,.45,.2,.04,0,.09,.02,.12,.08-.08,.01-.14,.01-.2,0-.04,0-.08-.04-.1,.03,.13,.08,.28,.08,.43,.1,.1,.01,.17,.06,.25,.12-.18,.05-.34,.04-.51,.04,0,0,0,0,0,0,0,0,0,.01,0,.02,.04,.04,.01,.06-.02,.07-.07,.02-.14,.03-.21,.03-.14,0-.15,.02-.14,.17,0,.03,.01,.04,.03,.04,.16,0,.27,.13,.42,.18,.03,0,.06,.03,.06,.07,0,.04-.03,.07-.07,.09-.03,0-.06,.01-.1,.02-.1,.02-.2,0-.29,.04,.08,.04,.15,.08,.22,.13,.08,.06,.17,.1,.27,.1,.05,0,.09,.02,.12,.07-.02,.04-.06,.03-.08,.04-.02,0-.02,.02-.02,.04,0,.02,.01,.03,.03,.03,.05-.01,.06,.03,.07,.07,0,.03,.02,.05,.02,.08,.01,.11,.06,.18,.17,.18,.03,0,.06,.01,.08,.03,.06,.05,.13,.05,.2,.04,.26-.06,.52-.05,.78-.08,.05,0,.1,0,.16-.01,.16-.05,.32-.05,.48-.09,.18-.05,.37-.02,.56-.05,.04,0,.07,0,.11,.01,.03,.01,.06,.02,.09,0,.1-.08,.22-.1,.33-.11,.16-.02,.32-.04,.47-.08,.08-.02,.16-.03,.24-.04,.2-.02,.4-.02,.59-.07,.13-.03,.26-.05,.4-.05,.03,0,.06-.01,.08,.04-.08,.04-.14,.1-.15,.21,0,.03-.04,.04-.06,.03-.09-.04-.19,0-.28,.01-.14,0-.28,.03-.42,.07-.07,.02-.13,.03-.19,0-.05-.03-.1-.01-.14,0-.18,.09-.38,.08-.57,.12-.04,0-.08-.02-.12-.01-.22,.02-.44,.04-.66,.08-.09,.02-.19,.04-.28,.02-.16-.04-.32-.01-.47,.01-.25,.04-.51,.06-.76,.1-.16,.02-.32,0-.48,.03-.08,.02-.15,.09-.24,.09-.03,.02-.07,0-.1,.02-.04,0-.08,0-.12,0,.01,.06,.05,.03,.07,.02,.06,0,.13,.01,.19,.02,.04,0,.05,.02,.05,.06-.03,.13,.03,.24,.06,.35,.02,.06,.05,.09,.11,.06,.13-.06,.26-.05,.4-.07,.25-.04,.52,0,.76-.1,.01,0,.03,0,.05,0,.21,.02,.4-.08,.6-.06,.02,0,.03,0,.05-.01,.23-.06,.46-.05,.69-.1,.02,0,.03,0,.05,.02-.02,.06-.01,.13-.03,.2-.03,.07-.12,.07-.16,.13-.01,.01-.01,.02,0,.04,.01,.05,0,.1-.04,.14-.04,.03-.11,.04-.07,.13,0,.01-.02,.03-.03,.03-.06,0-.1,.05-.15,.08-.03,.02-.07,.04-.1,0-.02-.02-.02-.06-.06-.04-.03,.02-.06,.04-.06,.08,0,.04,.03,.06,.06,.07,.07,.04,.15,.07,.23,.03,.03-.02,.09-.03,.11,.02,.03,.07,.08,.09,.15,.13-.08,.05-.18,.05-.24,.11-.02,.03,.02,.05,0,.08-.03,.03-.08,.03-.11,.08-.02,.04-.04,.1-.1,.07-.04-.03-.02-.09,0-.13,0,0,0-.02,.01-.02,0-.02,0-.04-.01-.04-.02,0-.02,.01-.03,.03-.04,.05-.07,.11-.09,.17-.09,0-.11,.1-.16,.16,.02,.08,.09,0,.12,.06,.05,.03,.09,.03,.13-.01,.04-.04,.07-.01,.1,.03,.01,.04,.04,.07,.07,.09,.06,0,.11-.02,.17-.04,.03,0,.06,0,.06,0,0,.17-.17,.13-.23,.26,.12-.07,.23,.02,.34,0,.04,0,.09,.02,.08,.08-.02,.13-.15,.2-.26,.16-.01-.02-.02-.04-.04-.03-.02,.05-.06,.07-.12,.07-.09,0-.09,.02-.13,.11-.02,.06-.07,.11-.06,.18,0,0-.02,.03-.02,.02-.07-.01-.12,.06-.18,.06-.11,0-.16,.08-.21,.16,.09,.08,.09,.09,.17,.06,.13-.04,.26,.02,.39,.03,0,0,.02,.01,.03,.02,0,.02,0,.03-.02,.04-.06,.06-.14,.08-.22,.11,0,0,0,0,0,0,0,0,0,0,0,.01,.04,.02,.11,0,.1,.05-.01,.09,.04,.14,.06,.21,.02,.07,.01,.09-.05,.12-.04,.01-.07,.02-.11,.01-.08-.03-.17,0-.25-.04-.04-.02-.06,.02-.09,.02-.02,.01-.04,.02-.02,.05,.01,.03,.01,.07,.06,.06,.03,0,.06,0,.08,.01,.09,.02,.09,.03,.04,.12,.03,0,.05,.02,.08,.03,.02,0,.05,0,.05,.04,0,.03-.02,.06-.04,.07-.06,.01-.09,.07-.15,.08-.04,.15,.07,.13,.15,.15,.08,.02,.15,.07,.23,.03,.05-.02,.1,.02,.15,.04,0,0,0,.02-.01,.03-.01,.02-.04,.01-.05,.03,0,0-.01,.02,0,.03,.03,.04,0,.07-.02,.1,0,.02-.02,.03-.03,.05,0,0-.02,.02-.02,.03h0s0,0,0,0c0,0,0,0,0,0,0,0,0,0,0,.01h0c0,.06-.02,.05-.05,.03-.04-.01-.09-.03-.13-.04-.05-.01-.08-.01-.09,.05,0,.02,0,.03-.01,.05-.03,.08-.03,.09,.04,.12,.02,0,.05,.01,.07,.02,.09,.03,.18,.05,.27,.08-.07,.01-.13,.11-.21,.05,0,0,0,.01-.01,.02,0,0,0,0,.01-.01-.03,.04-.05,.09-.09,.11-.06,.04-.13,.08-.2,.03-.11-.06-.11-.07-.19,.01-.04,.04-.07,.04-.11,.01-.02-.03-.02-.06-.04-.08,.02-.09-.05-.09-.09-.08-.15,.04-.3,.04-.46,.05-.03,0-.06,.01-.1,.02-.02,0-.03,0-.05,0-.1-.05-.21-.02-.32-.02-.26,.02-.53-.02-.78,.08-.01,0-.02,0-.04,0-.11,0-.22,0-.33,.04-.16,.07-.35,.05-.52,.11-.02,0-.04,0-.06,0-.08,.01-.16-.04-.24-.04-.05,0-.09,.02-.12-.05,0-.01-.04-.01-.05,0-.01,.01,0,.03,.01,.04,.06,.05,.07,.1,0,.15-.01,.01,0,.05,.02,.05,.13-.04,.28,.12,.39-.04,0,0,.02,0,.02,0,.13-.02,.26-.04,.38-.06,.21-.03,.42-.04,.63-.06,.23-.02,.46-.03,.7-.03,.18,0,.36,0,.54,.02,.05,0,.11,0,.15,.06-.04,.05-.09,.04-.14,.05-.14,.02-.28,.02-.41,.04-.23,.04-.47,0-.69,.07-.01,0-.03,0-.05,0-.06-.02-.12,0-.18,0-.1,.03-.19,.03-.29,.03-.06,0-.12,0-.18,.02-.08,.02-.17,.03-.25,.03-.13,0-.26,.02-.35,.14-.03,.05-.05,.11-.12,.12-.01,0-.02,0-.01,.02,.07,.07-.06,.06-.04,.11,.02,.04,.05,.05,.09,.06,.05,.01,.12,.03,.12,.09,0,.07-.07,.08-.13,.08-.03,0-.05,.02-.05,.05,0,.03,.02,.06,.05,.06,.04,0,.08,0,.11-.03,.01,.08-.06,.11-.08,.16-.03,.05,.04,.09,0,.14-.02,.03-.04,.05-.08,.06-.06,.02-.12,.02-.17,.06,.01,.11,.06,.18,.18,.15,.01,0,.03,0,.04,0,.08,.04,.15,.03,.22-.01,.05-.03,.1,0,.14,0,.03,0,.05,.02,.05,.05,0,.03-.02,.05-.04,.05-.07,.01-.14,.04-.19,.09-.06,.07-.14,.1-.22,.11-.03,0-.05,.01-.05,.06,0,.03,0,.06,.03,.07,.03,0,.06,.04,.09,.02,.03-.02,.07-.01,.11,0,.07,.01,.14,0,.21,0,.11,0,.23-.05,.33,.03,.02,.01,.04,0,.06,0,.05,0,.04-.09,.1-.08,.05,.01,.05,.08,.1,.09,.01,0,.02,0,.03,.01,.07,.04,.07,.06,.04,.15-.04,.08-.07,.09-.13,.06-.03-.02-.07-.06-.11-.01-.01,.02-.04,.01-.05,.03-.1,0-.19,.03-.29-.02,0,.03-.02,.05-.03,.08-.01,.02-.04,.01-.06,.02-.04,.03-.1,0-.14,.04-.05,.06-.12,.06-.19,.07-.05,.02-.1,.03-.11,.1q-.09-.08-.17-.04s-.11-.01-.07,.08c.03,0,.05,.01,.05,.04,0,.03-.03,.06-.06,.05-.06-.02-.09,.02-.13,.04-.03,.02-.09,0-.08,.07,.01,.08,.06,.12,.12,.15,.02,.01,.04,.02,.06-.02,.06-.11,.06-.11,.17-.07,.02,0,.05,.02,.07,.01,0-.09,0-.09,.06-.06,.02,.01,.03,.03,.06,.01,.05-.03,.11-.04,.17-.07,.04-.02,.08-.02,.12,0,.1,.03,.19,.07,.3,.03,.02,0,.05,0,.07,.02,.02,0,.03,.01,.03,.03,0,.02-.02,.03-.03,.03-.03,0-.06,0-.09,0-.02,0-.04,.01-.05,.03-.08,.15-.11,.17-.26,.14-.02,0-.04,0-.06,0-.06,.05-.13,.05-.2,.07,0,.03,.02,.08-.04,.1-.03,.01,0,.04,.02,.05,.04,.02,.07,.05,.11,.05,.04,0,.07,0,.11,.01,.03,0,.06,.02,.06,.05,0,.03-.02,.06-.05,.06-.04,0-.06,.04-.09,.06-.05,.05-.03,.1,.02,.13,.02,.03,.04,.06,.08,.02,.04-.04,.08-.04,.12-.02,.02,.01,.05,.02,.07,.02,.04,0,.08,.04,.1-.03-.02-.06,0-.08,.05-.09,.16-.04,.32-.07,.46,.03,.01,0,.03,.02,.05,.01,.08-.03,.18,0,.26-.04,.07-.03,.11-.02,.16,.03,.02,.02,.03,.02,.05,0,.09,.02,.16,.09,.26,.03,0,0,0,.01,.01,.02-.02,.03-.05,.03-.06,.07-.03,.09-.03,.09-.11,.05-.07-.03-.1-.02-.12,.06,0,.02-.02,.03-.03,.04-.06,0-.1,.05-.14,.07-.08,.05-.16,.08-.26,.11-.07,.02-.14,0-.21,.04-.03,.02,0,.07-.08,.08-.09,0-.18-.04-.27,0-.03,.01-.07,.02-.1,.04-.03,.01-.06,.02-.06,.07,.03,.06,0,.09-.05,.11-.02,.05-.05,.07-.11,.06-.04-.01-.1-.02-.13,.04,.12,.1,.24,.16,.39,.06,.06-.04,.14-.04,.22,0-.02,.06-.08,.06-.09,.13,.07,0,.13,.01,.2,.04,.09,.03,.2,.03,.28,0,.02,0,.03,0,.05-.01,.11-.04,.22,.02,.32,0,.08-.04,.16-.07,.24-.04,0,.06-.05,.07-.07,.1-.03,.06,.04,.1,.03,.16-.02,.03-.02,.06,.02,.07,.03,.01,.05,.03,.04,.07-.01,.03-.04,.04-.07,.04-.02,0-.03,0-.05,0-.02,0-.05,0-.06,.03,0,.03,.02,.06,.04,.07,.13,.04,.26,.11,.41,.1,.04,0,.05-.03,.08-.04,.03-.02,.04,.06,.08,.04,.02,0,.04,0,.05-.02,0-.01,0-.02-.02-.03-.02-.03,0-.03,.03-.04,.04,0,.08,0,.12-.01,.1,.01,.2,.02,.3-.01,.06-.02,.12-.03,.18-.04,.09-.01,.17,.02,.25,.02,.02,0,.04,0,.06,0,0,0,.01,0,.01,0,0,0,0,0-.02,0,0,0-.01,.01-.02,.02,0,0,0,.01,0,.02,0,.05,.14-.03,.07,.08-.09,.06-.17,.15-.28,.17-.02,0-.06,.01-.04,.06,0,.02,.02,.02,.03,.03,0,0,.02,0,.03,0,0,0,0,0,.01,0,.03,.04,.07,.09,.13,.08,.02,0,.04,0,.06,0,.03-.06,.05-.01,.07,0,.01,.01,.03,.02,.04,.03,.05,.01,.07-.02,.1-.05,.04-.05,.09-.09,.15-.09,.04,.16-.04,.17-.15,.16-.04,0-.07,0-.11-.01,0,0-.02,0-.03-.01-.01,0-.03-.02-.04-.02-.02,0-.04,.01-.06,.03-.02,.03-.02,.07-.07,.04-.03-.01-.06-.01-.08,0,0,0-.01,.02-.01,.03,0,.02,.04,.04,0,.07-.07,.03-.12,.08-.16,.13-.04,.02-.09,.02-.12,.09,.04,0,.07,.03,.1,.06,.07,.03,.14-.02,.2,.03,.09,0,.19,.08,.28,0,.02-.02,.05-.03,.07-.04,0,0,.02,0,.03-.01,.02,0,.04-.02,.06-.03,.03-.1,.13-.06,.19-.11,.02-.02,.04-.04,.06-.06,.03-.04,.07-.07,.11-.06-.02,0-.04,0-.05,0-.02,0-.02,.02-.03,.04,0,.01,0,.02,0,.03,0,.03-.03,.05-.03,.07-.07,.09-.18,.08-.26,.15-.01,.01-.02,.03-.02,.05,.05,.05,.12,0,.18,.04,0,0,.02,.02,.03,.02,.02,.01,.04,0,.06-.02h0s0,.01,0,.01c-.03,.03-.05,.07-.05,.12,0,.04,.01,.07,.06,.04,.1-.04,.2,0,.3-.02,.01,0,.03,.02,.04,.02,.03,.04,.07,.05,.1,.07,.02,0,.02,.03,.01,.04-.01,.02-.03,.04-.05,.05-.07,0-.09,.04-.05,.1,0,0,0,.01,0,.02-.02,0-.02,.01,0,.02,.07,.03,.09-.09,.16-.05,.04-.1,.17-.05,.21-.14,0-.02,.02,0,.03,0,.07,.06,.13,.07,.21,.03,0,0,0-.01,0-.02h0s0,0,0,0c0,0,.02,0,.03,0,.07-.03,.13-.04,.2,.01q.04,.07-.06,.14c.03,.07,.1,0,.14,.03,.03,.05,.07,.02,.1,.01-.04,.02-.08,.04-.12,.06-.11,.04-.23,.07-.34,.11-.01,.02,0,.03,0,.05,0,0,.01,.02,.02,.03,.02,.01,.04,.02,.06,.03,.06,0,.1,.04,.14,.06,.06-.03,.14,.06,.18-.03,.06-.12,.14-.07,.22-.05,.07,.02,.03,.11,.08,.13,.02,0,.03,.01,.05,.02,.02,0,.04,0,.07,0,.02,0,.03-.03,.05,0,0,0-.01,.01-.02,.02-.01,.02-.04,.04-.02,.07-.04,.1-.04,.11-.13,.1-.04,0-.09-.02-.13,.01-.04,.03-.09,.04-.14,.04,.03,.03,.06,.05,.08,.08,0,.01,.01,.02,.03,.02h0s0,.06,.02,.08h0s0,.05,.01,.08c0,.02,.01,.03,.03,.04,.03,0,.05,0,.08,0,.01,0,.02,.01,.03,.03,0,0,.01,.02,.02,.02,0,.01,.02,.02,.03,.03,0,0,.02,0,.03,0,.01,0,.02,0,.04,0,0,0,0,.01,0,.02h0s0,0,0,0c0,0-.01,0-.02-.01-.01,0-.03,0-.04,0-.02,0-.04,0-.05,0,0,0-.02,0-.03,0,0,0-.02,0-.03,0-.02,0-.04-.01-.05-.01,0,0-.02,0-.02,.02-.02,.02-.04,.01-.05,0,0,0,0,0-.01,0-.04,.03-.01,.06,0,.08,.01,.01,.03,.03,.04,.03,.03,.01,.05,0,.08,.01,.04,.02,.05,.1,.11,.05,.05-.02,.09-.04,.14-.06,.02,.05-.01,.07-.02,.1,0,.03-.02,.06,.03,.06,.03-.01,.06-.03,.09-.04,.06-.02,.11,.02,.13,.09,.02,.07,0,.1-.06,.13-.04,.02-.08,.02-.12,.03-.02,.03,0,.06,.02,.08,.02,.02,.04,.04,0,.06-.02,.02-.04,.03-.02,.06,.05,.03,0,.08,.02,.11h0c.07,.05,.14,.01,.2,0,.02,0,.03-.02,.04-.03,.09-.04,.18,0,.27,0,.02,0,.03,.01,.05,0,.1-.04,.21-.06,.31-.1,.03,.02,.06,.06,.1,.03,.04,0,.09,0,.13-.02,.07-.03,.14-.04,.21-.03,.08-.05,.15-.12,.24-.14,.03-.01,.05-.02,.08-.02,.08-.02,.16,0,.23-.05,.05-.03,.11-.05,.17-.07,.09-.03,.17-.07,.26-.1,.09,0,.18,0,.27,0,0-.06,.07-.07,.07-.13,0-.02,0-.04-.01-.05-.02-.01-.04-.03-.01-.05,.05-.03,.1-.06,.16-.04,.05,0,.09,.02,.14,0,.01,0,.02,0,.03,0,.02,0,.05,0,.07-.02,0,0,0,0,0,0h0s-.02,.01-.03,.02c-.03,.02-.05,.05-.06,.08,0,.02,0,.04,0,.06,.06,0,.12,.04,.17-.02,.03,0,.06-.01,.05-.06-.01-.04,0-.05,.04-.05,.05-.04,.13,.04,.18-.04-.03,0-.05,0-.06-.05,.1-.04,.2-.1,.32-.08,.04,0,.07,0,.06-.06,.01,0,.02,0,.03,.01q.06,.06,.12,0s.01-.01,.02-.02c.03-.03,.07,.01,.1-.03,.02,0,.05-.02,.05-.02,.05,.06,.08,0,.12,0,.03-.03,.07-.05,.09-.09,0,0,.01-.02,.02-.03,0-.01,0-.02,0-.04-.01-.02-.04-.03-.06-.03-.05,.01-.11,.01-.17,.01h0s0-.01,0-.01c.05-.02,.11-.03,.16-.02,0,0,.02,0,.03,0,.01,0,.03,0,.04,0,0,.01,0,.03,.01,.04,.05,.04,.11,.02,.16,.04,.07,.01,.13,.02,.2,.02,.02-.01,.02-.03,.02-.05,0,0,0-.02,0-.03,0-.01,.02-.02,.03-.03,0,0,0-.02,0-.03,0-.01-.02-.02-.02-.04,.07-.05,.16-.04,.24-.04,.02,0,.03,0,.05-.01,.01-.01,.02-.03,.02-.05,0,0-.02-.02,0-.03,.05,.07,.16,0,.2,.09,0,0,.02,.01,.03,.01,.01,0,.02,0,.03,0,.03-.03,.06-.05,.1-.05,.08,0,.09-.13,.18-.12,.04,0,.09,0,.13,0,.08-.02,.13-.1,.22-.08,.07-.02,.14,.07,.21,.02,0,0,.02-.01,.02-.02,0,.01-.01,.01-.02,.02-.02,.01-.04,.03-.06,.05,0,0-.01,.02-.01,.03,0,0,0,0,0,0,.9,0,1.8,.09,2.7,.16,.03,0,.07,0,.1,0,0,0,.02,0,.03,0,.06,0,.12,0,.18,.01,.03,0,.05,.01,.07,.03,.18-.05,.36-.08,.53-.11,.12-.04,.25-.07,.38-.08-.02-.03-.06-.06,.01-.08,.08-.02,.17-.03,.25-.06,.12-.02,.24,0,.36,0,.08,0,.16,0,.24,0,.04,0,.08-.03,.12-.01,.01,0,.02,0,.03,0,.03,0,.05,0,.08,0,.01,0,.02,0,.04-.01h0s0,0,0,0c0,0-.01,0-.02,0-.03,.05-.03,.12-.05,.17,0,.02,0,.04,0,.05,0,.02,.02,.03,.03,.03,.01,0,.03,0,.04,0,0,0,.01-.01,.02,0,0,0,0,0-.01,0,.27,0,.54,.04,.81,.09,.05,0,.11,.02,.16,.03,.08-.02,.17-.06,.25-.03,.18-.02,.35-.05,.52-.08,.31-.06,.61-.17,.92-.25,.26-.07,.59-.16,.91-.18,0-.01,0-.03,0-.05-.09-.07-.2-.03-.29-.05,.1-.06,.22-.04,.34-.06,.1-.02,.21,.03,.29-.06,0,0,0-.02,0-.03,0,0,0,0,.01,.01,.04,.02,.08,0,.11-.02,.03-.02,.05-.04,.09-.01,.01,0,.02,.01,.03,.01,.03,0,.06,0,.09,0,.04,0,.08,0,.12,0,.06-.01,.12,0,.18-.03,.03-.01,.05-.04,.08-.04,.01,0,.03,0,.04,0,.01,0,.03,0,.04,0,0,0,.02,0,.03,0,.02,0,.04,.01,.06,.01,.05,0,.08-.01,.11-.05,0,0,.01-.02,.02-.02,.05,.02,.1,.04,.16,.04,0,0,0,0,0,0,0,0,.01,0,.02,0,.04,0,.08,0,.12-.02,.04-.01,.06,.01,.09,.03,.08,.02,.17-.02,.24,.05,.02,.01,.04-.01,.06-.03,.02-.01,.03-.02,.02-.05,0-.02-.02-.03,0-.04,.01,0,.02-.01,.03-.03,0-.04,.03-.02,.05-.01,.11-.04,.21-.1,.33-.1,.05,.01,.1,.02,.15,0,.01-.02,0-.04,0-.05,0-.02-.04-.02-.03-.06,.08-.01,.15,0,.23,.01,.04,0,.05-.03,.07-.05,.02-.01,.03-.01,.05,0,.01,0,.03,.01,.03,.02h0s.03,.01,.05,0h0s0,0,0,0c.01,0,.02,.02,.03,.03,0,0,0,.02,0,.02,.02,.02,.04,.02,.06,0,.02-.02,0-.04-.01-.06,0,0-.01-.01-.02-.02,0,0-.01,0-.02-.01,0,0,0,0,0,0,.02,0,.03,.02,.05,.02,.04,0,.08,0,.12,0,.02,0,.03-.02,.03-.04,0-.02-.02-.05,.03-.05,.04,0,.08,0,.12-.02,.1-.05,.21-.02,.32-.02,.02-.05,.05-.03,.07,0,.11,0,.22,.02,.32-.02,0,0,0-.02,.01-.02,0-.01,.02-.02,.03-.03,0,0,.02,0,.03,0,0,0,.02,0,.02,.01,0,.01,0,.03,0,.04,0,0,.02,.01,.03,.02,.05,.04,.08,0,.11-.03,.02-.01,.04-.02,.06-.03,.06-.03,.12-.07,.19-.07,.01,0,.02,0,.03,0,0,0,.02,0,.03,0,0,0,.02,0,.03,0,.01,0,.02,.01,.03,.02,0,0,0,.01,.01,.02,0,.01,0,.03,0,.04,0,.01-.01,.03-.01,.04,0,.01,0,.02,.01,.03,.1,.04,.21,.01,.31,.04-.06-.01-.08,.04-.12,.06-.02,.03-.07,.03-.06,.08h0s.04,0,.05,.03h0s.02,.03,.04,.04c.07,0,.16-.03,.16,.1,.01,0,.02,.01,.03,.02h0s.04,0,.06,0c0,0,.02,0,.02,.01,.02,.03,.05,.04,.08,.03,.05-.03,.11-.04,.16,0,.01,0,.02,0,.03,0,.11,.01,.23,.05,.34,.03,.02,0,.04,0,.06,0,.05,0,.11,0,.16-.04,.07-.06,.16-.02,.24-.05,.05,.03,.11-.01,.15,.03,.02,0,.04,0,.06-.01,0,0,0,0,.01,0,0,0,.02-.01,.03-.02,0,0,.02,0,.03-.01,.08-.05,.13,.05,.21,.04,.03,0,.06,.02,.09,0,.07-.07-.05-.06-.04-.12,.08-.01,.14-.07,.22-.09,.02-.04,.05-.04,.09-.05,.07-.02,.13-.05,.11-.14-.02-.04,0-.06,.03-.06,.04,0,.04-.03,.04-.06,0-.11,0-.11,.11-.08,.01,0,.02,0,.04,0,.03,.02,.07,.01,.1,0,0,0,.01,0,.02,0,.02-.02,.07,0,.05-.06h0s-.04-.02-.06-.03c0,0-.02,0-.03,0-.01,0-.02,0-.04,0-.02-.01-.02-.03-.04-.04-.05-.02-.09-.05-.13-.06-.05-.03-.1-.06-.16-.06-.04,0-.09-.03-.13-.04-.04-.01-.05-.04-.04-.08,.01-.06,.15-.14,.2-.1,.09,.05,.15,0,.22-.05,0,0,.01-.02,.02-.03,0-.05-.02-.09-.04-.13-.01-.05-.03-.08-.08-.08-.04,0-.08-.02-.12-.02-.15-.02-.29-.1-.45-.1-.04,0-.09-.03-.11-.08,.09-.01,.19-.05,.26-.03,.07,.02,.14,.02,.2,.03,.05,.02,.08,.08,.15,.08,.1,.05,.2,.03,.29-.03,.06-.04,.14-.04,.2,0,.01,.01,.03,.02,.04,.03,.02,0,.03,0,.05,0,.05,.02,.08,.06,.13,.06,.04,0,.07,0,.1-.04-.01-.01-.03-.03-.03-.04,0-.1-.07-.12-.14-.15-.03-.01-.05-.02-.08-.03-.02-.02-.02-.03,0-.05,.03-.07-.03-.06-.06-.08-.07-.02-.12-.08-.18-.1-.03-.01-.09,0-.09-.04,0-.05,.06-.07,.09-.09,.04-.02,.08,0,.13,.01l.02,.15s.08-.03,.12-.03c.02,0,.04,0,.06,0,.02,0,.04,.02,.05,.02,0,0,0,0,.01,0,0,0,0,0,.01,0,0,0,.02,0,.03,0,0,0,.02,0,.03,0,.03,0,.06,.06,.07-.02,0-.03,0-.07,0-.1-.03-.07,.01-.07,.06-.06,.04,0,.07,.02,.11,0-.01-.04-.05-.03-.07-.04-.03-.02-.02-.04,0-.06,.02-.01,.06,0,.05-.04,0-.02-.03-.02-.05-.02-.02,0-.03,0-.05-.01-.04-.02-.01-.07-.03-.09-.02-.03-.03-.1-.09-.03-.04,.04-.13,.08-.19,0-.02-.03-.05,0-.07-.03h0s-.06,0-.06-.04c0-.03,.03-.03,.05-.04,.06-.03,.12,0,.18-.02,.1,0,.16-.11,.28-.08-.05-.07-.09-.11-.14-.15-.02-.01-.04-.03-.01-.06,.03-.03,0-.05-.01-.06-.02-.02-.04-.03-.06-.05-.03-.02-.04-.06-.03-.09,.01-.04,.04-.04,.07-.04,.02,0,.05,0,.08,0-.03-.07-.09-.13-.09-.21,.09-.02,.14-.05,.07-.15-.02-.02,.03,0,.03-.03,.02-.03,.07-.01,.09-.04,.05-.1,.14-.07,.21-.06,.11,.02,.21,0,.3-.06,.09-.06,.19-.02,.28-.08,0,0,.03,0,.03,.01,.03,.1,.12,.05,.18,.07,.07-.04,.02-.09,.01-.15,0,0,0-.02-.01-.02,0,0-.01-.01-.01-.02,0,0,0-.01,0-.02,0,0,.01,0,.02-.01,0,0,.01-.01,.02-.02,.06-.03,.13-.06,.19-.08,.08-.03,.16-.06,.24-.1,.13-.07,.27-.14,.4-.21,.03,0,.04-.03,.06-.04,.02-.02,.05-.02,.07-.03,.06,0,.11,0,.16-.04,.01,0,.02,0,.03-.01,0,0,.01-.02,.02-.03,0-.01,0-.02,0-.03,0-.03-.01-.07,.02-.1,.02-.04,.05-.07,.09-.1,0,0,.02-.01,.03-.02-.07-.06,.01-.08,.03-.11,.02-.05,.01-.07-.04-.08-.05,0-.09-.01-.12-.06h0s-.01,0-.01,0c0,.01,0,.01,0,0,0,0,0,0,0,0-.01-.05-.07-.06-.08-.12-.03,0-.07-.02-.1-.03-.08-.03-.17-.03-.25-.03-.07,0-.05-.04-.01-.07,.02-.01,.02-.04,.05-.05,.02-.01,.04-.03,.06-.03,.01-.02,0-.04,0-.06,.02-.1,.08-.07,.14-.07,.07-.01,.12-.07,.18-.11-.01-.07-.06-.05-.1-.06,.05-.02,.09-.04,.05-.11-.05-.04-.1-.05-.16-.04-.07,0-.14,.02-.2-.05,.07-.02,.11-.06,.17-.07,.15,0,.3-.04,.45-.04,.05-.02,.09-.05,.03-.11,0-.02,.02-.07-.01-.06-.07,0-.08-.06-.12-.09-.06-.05-.06-.08,0-.11,.05-.02,.09-.04,.1-.1,.02-.05,.02-.1-.02-.14,0,0,0,0,0-.01,0-.04,.03-.07,.02-.11h0s-.02-.02-.03-.02c-.02-.02-.03-.05-.03-.08-.02-.11-.07-.2-.16-.26-.02-.01-.04-.03-.06-.02-.11,.01-.2-.06-.29-.11-.05-.03-.11-.06-.1-.15,.15-.05,.3-.07,.45,0,.01,0,.02,0,.03,0,.05-.03,.09-.08,.14-.11,.04-.1,.04-.1-.09-.12-.08,.01-.16-.01-.24-.04,.04,0,.08,0,.12-.01,.02,0,.03-.02,.04-.03,.03-.06,.07-.05,.12-.04,.01,0,.02,0,.03,0,.14-.07,.26-.22,.44-.14,0,0,.01,0,.02-.01,0,0,.01-.02,.02-.03,0-.02,0-.04,0-.06ZM4.34,18.16s0,0,0,.01c-.01,0,0,0,0-.01Z"/>
  <text class="cls-2" transform="translate(7.74 10.08) scale(.88 1)"><tspan class="cls-3" x="0" y="0">COR</tspan><tspan class="cls-7" x="5.01" y="0">PORA</tspan><tspan class="cls-1" x="11.82" y="0">CIÓN</tspan><tspan class="cls-5" x="17.84" y="0"> </tspan><tspan class="cls-6" x="-3.03" y="2.99">FUERZA</tspan><tspan class="cls-5" x="6.13" y="2.99"> </tspan><tspan class="cls-4" x="6.76" y="2.99">INCLUYENTE</tspan></text>
</svg>